<svg width="212" height="52" viewBox="0 0 212 52" fill="none" xmlns="http://www.w3.org/2000/svg">
<g clip-path="url(#clip0_2402_72)">
<path d="M45.9441 26.9505C45.9441 37.9683 37.012 46.9005 25.9936 46.9005C14.9748 46.9005 6.04297 37.9683 6.04297 26.9505C6.04297 15.932 14.9752 7 25.9936 7C37.0122 7 45.9441 15.932 45.9441 26.9505Z" fill="#DD4814"/>
<path d="M12.4277 24.2862C10.956 24.2862 9.76367 25.4786 9.76367 26.9503C9.76367 28.4212 10.956 29.6137 12.4277 29.6137C13.8988 29.6137 15.0912 28.4212 15.0912 26.9503C15.0912 25.4786 13.8988 24.2862 12.4277 24.2862ZM31.4457 36.3922C30.1718 37.1281 29.7348 38.7562 30.4707 40.0295C31.2059 41.3036 32.834 41.7403 34.108 41.0045C35.382 40.2694 35.8188 38.6412 35.083 37.367C34.3479 36.0939 32.7188 35.6572 31.4457 36.3922ZM18.2135 26.9503C18.2135 24.3181 19.521 21.9925 21.5215 20.5843L19.5741 17.3228C17.2438 18.8806 15.5098 21.2609 14.7891 24.0489C15.6301 24.7348 16.1682 25.7793 16.1682 26.9501C16.1682 28.1203 15.6301 29.1648 14.7891 29.8509C15.5088 32.6395 17.2429 35.0201 19.5741 36.5779L21.5215 33.3154C19.521 31.9081 18.2135 29.5826 18.2135 26.9503ZM25.9935 19.1695C30.058 19.1695 33.3927 22.2858 33.7427 26.2601L37.538 26.2042C37.3515 23.2701 36.0696 20.6361 34.1002 18.6992C33.0874 19.0818 31.9174 19.0233 30.9065 18.4404C29.8935 17.8559 29.2584 16.8698 29.0848 15.7995C28.0779 15.5209 27.0381 15.3795 25.9934 15.3792C24.2146 15.3774 22.4595 15.7872 20.8654 16.5765L22.7162 19.8933C23.7426 19.4155 24.8613 19.1684 25.9935 19.1695ZM25.9935 34.7304C24.8614 34.7315 23.7427 34.4844 22.7163 34.0067L20.8655 37.3231C22.4594 38.1133 24.2147 38.5236 25.9937 38.5217C27.0384 38.5214 28.0783 38.3797 29.0849 38.1003C29.2585 37.03 29.8938 36.0448 30.9065 35.4594C31.9184 34.8754 33.0876 34.8179 34.1002 35.2006C36.0698 33.2637 37.3515 30.6297 37.5384 27.6956L33.742 27.6397C33.3927 31.6151 30.0582 34.7303 25.9935 34.7303V34.7304ZM31.4448 17.5068C32.7188 18.2425 34.3471 17.8068 35.0821 16.5328C35.818 15.2587 35.3821 13.6304 34.108 12.8945C32.834 12.1595 31.2059 12.5961 30.4698 13.8701C29.7349 15.1436 30.1716 16.7717 31.4448 17.5068Z" fill="white"/>
</g>
<path d="M124.887 32.5956C125.608 30.5307 126 28.3111 126 26C126 14.9543 117.045 6 106 6C94.9541 6 86 14.9543 86 26C86 31.4653 88.1925 36.4188 91.7456 40.0288L112.033 19.7411L117.041 24.7501L124.887 32.5956ZM121.234 38.9596L112.033 29.7586L97.6247 44.1672C100.172 45.3436 103.009 46 106 46C112.102 46 117.565 43.2676 121.234 38.9596Z" fill="#10B981"/>
<path d="M203.12 33.7954C203.067 33.9557 202.241 36.8358 200.213 39.7973C198.457 42.3519 196.641 44.9271 193.774 44.9723C190.954 45.0219 190.051 43.2897 186.831 43.2897C183.616 43.2897 182.605 44.9271 179.94 45.0219C177.185 45.1347 175.065 42.2314 173.302 39.6893C169.7 34.4817 166.926 24.9322 170.646 18.5325C172.476 15.3305 175.766 13.2951 179.348 13.2395C182.048 13.1885 184.616 15.0683 186.256 15.0683C187.94 15.0683 191.047 12.7937 194.325 13.134C195.698 13.1925 199.537 13.7078 202.01 17.2926C201.815 17.425 197.417 20.0208 197.466 25.3039C197.532 31.6818 203.061 33.7736 203.12 33.7954ZM192.18 9.71761C193.658 7.91454 194.63 5.43602 194.374 2.97461C192.264 3.05739 189.692 4.3762 188.164 6.16857C186.813 7.73235 185.622 10.2495 185.954 12.6823C188.299 12.8247 190.71 11.4543 192.18 9.71761Z" fill="white"/>
<defs>
<clipPath id="clip0_2402_72">
<rect width="40" height="40" fill="white" transform="translate(6 7)"/>
</clipPath>
</defs>
</svg>
