<svg width="90" height="90" viewBox="0 0 90 90" fill="none" xmlns="http://www.w3.org/2000/svg">
<path d="M24.4772 54.4264C24.4772 58.4877 21.1594 61.8057 17.098 61.8057C13.0365 61.8057 9.71875 58.4877 9.71875 54.4264C9.71875 50.3648 13.0365 47.0472 17.098 47.0472H24.4772V54.4264ZM28.1954 54.4264C28.1954 50.3648 31.5132 47.0472 35.5747 47.0472C39.6362 47.0472 42.9539 50.3648 42.9539 54.4264V72.9031C42.9539 76.9647 39.6362 80.2823 35.5747 80.2823C31.5132 80.2823 28.1954 76.9647 28.1954 72.9031V54.4264ZM35.5747 24.4773C31.5132 24.4773 28.1954 21.1594 28.1954 17.098C28.1954 13.0366 31.5132 9.71875 35.5747 9.71875C39.6362 9.71875 42.9539 13.0366 42.9539 17.098V24.4773H35.5747ZM35.5747 28.1954C39.6362 28.1954 42.9539 31.5133 42.9539 35.5747C42.9539 39.6361 39.6362 42.9541 35.5747 42.9541H17.098C13.0365 42.9541 9.71875 39.6361 9.71875 35.5747C9.71875 31.5133 13.0365 28.1954 17.098 28.1954H35.5747ZM65.524 35.5747C65.524 31.5133 68.8416 28.1954 72.9029 28.1954C76.9645 28.1954 80.2821 31.5133 80.2821 35.5747C80.2821 39.6361 76.9645 42.9541 72.9029 42.9541H65.524V35.5747ZM61.8055 35.5747C61.8055 39.6361 58.4879 42.9541 54.4263 42.9541C50.365 42.9541 47.047 39.6361 47.047 35.5747V17.098C47.047 13.0366 50.365 9.71875 54.4263 9.71875C58.4879 9.71875 61.8055 13.0366 61.8055 17.098V35.5747ZM54.4263 65.5238C58.4879 65.5238 61.8055 68.8418 61.8055 72.9031C61.8055 76.9647 58.4879 80.2823 54.4263 80.2823C50.365 80.2823 47.047 76.9647 47.047 72.9031V65.5238H54.4263ZM54.4263 61.8057C50.365 61.8057 47.047 58.4877 47.047 54.4264C47.047 50.3648 50.365 47.0472 54.4263 47.0472H72.9029C76.9645 47.0472 80.2821 50.3648 80.2821 54.4264C80.2821 58.4877 76.9645 61.8057 72.9029 61.8057H54.4263Z" fill="#00BF7D"/>
<path d="M24.4772 54.4261C24.4772 58.4874 21.1594 61.8054 17.098 61.8054C13.0365 61.8054 9.71875 58.4874 9.71875 54.4261C9.71875 50.3645 13.0365 47.0469 17.098 47.0469H24.4772V54.4261ZM28.1954 54.4261C28.1954 50.3645 31.5132 47.0469 35.5747 47.0469C39.6362 47.0469 42.9539 50.3645 42.9539 54.4261V72.9027C42.9539 76.9644 39.6362 80.282 35.5747 80.282C31.5132 80.282 28.1954 76.9644 28.1954 72.9027V54.4261Z" fill="#EE004E"/>
</svg>
