<svg width="90" height="90" viewBox="0 0 90 90" fill="none" xmlns="http://www.w3.org/2000/svg">
<path d="M83.2969 21.2099C80.4342 22.4763 77.3982 23.3081 74.2898 23.6777C77.5647 21.7172 80.0153 18.6331 81.1849 14.9999C78.1077 16.8283 74.7394 18.1151 71.2268 18.8045C68.2616 15.6412 64.1175 13.8486 59.7818 13.8535C51.1223 13.8535 44.0989 20.8745 44.0989 29.5379C44.0989 30.7669 44.2399 31.9588 44.5035 33.1088C31.4643 32.4524 19.9128 26.2124 12.1754 16.7225C10.7824 19.116 10.0502 21.8367 10.0539 24.606C10.0539 30.047 12.8235 34.8494 17.0306 37.661C14.5402 37.5823 12.1046 36.9096 9.92694 35.6987C9.92454 35.7646 9.92454 35.8305 9.92454 35.8928C9.92454 43.4937 15.3307 49.8343 22.5075 51.2739C21.1605 51.6384 19.7712 51.8225 18.3758 51.8214C17.3624 51.8214 16.3789 51.728 15.423 51.5446C17.4199 57.7741 23.2082 62.3094 30.0735 62.4339C24.518 66.794 17.6576 69.1595 10.5954 69.1494C9.34547 69.1505 8.09661 69.0766 6.85547 68.9289C14.0252 73.538 22.3707 75.9841 30.8941 75.9751C59.7435 75.9751 75.5175 52.0779 75.5175 31.3539C75.5175 30.6759 75.501 29.9955 75.471 29.3246C78.5412 27.1064 81.1913 24.3585 83.2969 21.2099Z" fill="#01AEE5"/>
</svg>
