<svg width="90" height="90" viewBox="0 0 90 90" fill="none" xmlns="http://www.w3.org/2000/svg">
<path d="M69.6576 51.4178C71.5285 51.4178 73.0251 49.8274 73.0251 48.0503C73.0251 46.1794 71.5285 44.6831 69.6576 44.6831C67.7871 44.6831 66.2905 46.1794 66.2905 48.0503C66.2905 49.9211 67.7871 51.4178 69.6576 51.4178ZM53.0616 51.4178C54.9321 51.4178 56.4287 49.8274 56.4287 48.0503C56.4287 46.1794 54.9321 44.6831 53.0616 44.6831C51.1907 44.6831 49.6941 46.1794 49.6941 48.0503C49.6941 49.9211 51.1907 51.4178 53.0616 51.4178ZM77.689 70.3185C77.2285 70.5949 76.9521 71.0558 77.0443 71.7008C77.0443 71.8849 77.0443 72.0694 77.1362 72.2535C77.5048 73.8203 78.2413 76.3088 78.2413 76.401C78.2413 76.6774 78.3336 76.8615 78.3336 77.046C78.3336 77.5069 77.9653 77.8755 77.5049 77.8755C77.3204 77.8755 77.2285 77.7833 77.0443 77.691L71.6106 74.5575C71.242 74.3734 70.7815 74.1889 70.321 74.1889C70.045 74.1889 69.7686 74.1889 69.5845 74.2811C67.0056 75.0184 64.3349 75.387 61.48 75.387C47.7572 75.387 36.7058 66.171 36.7058 54.7436C36.7058 43.3159 47.7572 34.0998 61.48 34.0998C75.2023 34.0998 86.254 43.3159 86.254 54.7436C86.254 60.918 82.9382 66.5396 77.689 70.3185ZM62.5266 30.3659C62.179 30.3552 61.8302 30.3498 61.48 30.3498C45.8249 30.3498 32.9558 41.076 32.9558 54.7436C32.9558 56.8196 33.2527 58.8278 33.8112 60.7406H33.4769C30.1538 60.7406 26.8308 60.1886 23.7846 59.361C23.5077 59.2688 23.2308 59.2688 22.9539 59.2688C22.4 59.2688 21.8462 59.4529 21.3846 59.7289L14.8308 63.5003C14.6462 63.5925 14.4615 63.6844 14.2769 63.6844C13.7231 63.6844 13.2616 63.2246 13.2616 62.6726C13.2616 62.3966 13.3539 62.2125 13.4462 61.9365C13.5385 61.8446 14.3693 58.809 14.8308 56.9693C14.8308 56.7851 14.9231 56.5091 14.9231 56.3254C14.9231 55.5893 14.5539 55.0373 14.0923 54.6694C7.72313 50.1619 3.75391 43.4468 3.75391 35.9953C3.75391 22.2888 17.1385 11.25 33.5692 11.25C47.6841 11.25 59.551 19.3821 62.5266 30.3659ZM43.1999 31.9352C45.3479 31.9352 47.0485 30.1452 47.0485 28.0868C47.0485 25.9388 45.3479 24.2384 43.1999 24.2384C41.0519 24.2384 39.3516 25.9388 39.3516 28.0868C39.3516 30.2347 41.0519 31.9352 43.1999 31.9352ZM23.4769 31.9352C25.6249 31.9352 27.3253 30.1452 27.3253 28.0868C27.3253 25.9388 25.6249 24.2384 23.4769 24.2384C21.329 24.2384 19.6285 25.9388 19.6285 28.0868C19.6285 30.2347 21.329 31.9352 23.4769 31.9352Z" fill="#0ABE14"/>
</svg>
