<svg width="90" height="90" viewBox="0 0 90 90" fill="none" xmlns="http://www.w3.org/2000/svg">
<path d="M45.9146 15C47.9175 15.011 52.9286 15.0595 58.2529 15.2727L60.1406 15.355C65.5013 15.6088 70.8574 16.0424 73.5139 16.7831C77.0573 17.7786 79.8424 20.6831 80.7836 24.365C82.2825 30.2115 82.47 41.6228 82.4933 44.3843L82.4966 44.9565V44.9966C82.4966 44.9966 82.4966 45.0105 82.4966 45.0371L82.4933 45.6094C82.47 48.3709 82.2825 59.7821 80.7836 65.6287C79.8293 69.324 77.0441 72.2288 73.5139 73.2105C70.8574 73.9511 65.5013 74.3846 60.1406 74.6385L58.2529 74.7206C52.9286 74.934 47.9175 74.9824 45.9146 74.9936L45.0356 74.9966H44.9966C44.9966 74.9966 44.9835 74.9966 44.9576 74.9966L44.0794 74.9936C39.8404 74.9704 22.1165 74.7788 16.4794 73.2105C12.936 72.2149 10.1509 69.3105 9.20951 65.6287C7.71075 59.7821 7.5234 48.3709 7.5 45.6094V44.3843C7.5234 41.6228 7.71075 30.2115 9.20951 24.365C10.164 20.6695 12.949 17.765 16.4794 16.7831C22.1165 15.2146 39.8404 15.0233 44.0794 15H45.9146ZM37.4967 31.8718V58.1216L59.9966 44.9966L37.4967 31.8718Z" fill="#FE021C"/>
</svg>
